<?xml version="1.0" standalone="no"?>
<!DOCTYPE svg PUBLIC "-//W3C//DTD SVG 20010904//EN"
 "http://www.w3.org/TR/2001/REC-SVG-20010904/DTD/svg10.dtd">
<svg version="1.0" xmlns="http://www.w3.org/2000/svg"
 width="800.000000pt" height="600.000000pt" viewBox="0 0 800.000000 600.000000"
 preserveAspectRatio="xMidYMid meet">
<metadata>
Created by potrace 1.15, written by Peter Selinger 2001-2017
</metadata>
<g transform="translate(0.000000,600.000000) scale(0.100000,-0.100000)"
fill="#000000" stroke="none">
<path d="M4332 5140 l-32 -20 2 -168 3 -167 163 -93 162 -94 38 15 37 15 3
189 2 190 -158 76 c-88 42 -165 77 -173 77 -8 0 -29 -9 -47 -20z m215 -192
l53 -52 0 -68 0 -67 -37 -6 c-21 -3 -46 -8 -57 -10 -11 -2 -37 14 -70 43 -73
68 -75 71 -76 135 0 66 11 75 90 76 40 1 49 -4 97 -51z"/>
<path d="M4868 4874 l-28 -15 0 -172 0 -172 165 -94 166 -94 39 18 40 18 0
187 0 186 -157 77 c-87 43 -167 77 -178 77 -11 -1 -32 -8 -47 -16z m162 -207
l135 -63 3 -57 c2 -36 -1 -57 -8 -57 -6 0 -33 12 -61 26 -28 14 -58 23 -66 20
-17 -7 -73 20 -73 34 0 6 -18 17 -40 26 l-40 16 0 59 c0 32 3 59 8 59 4 -1 68
-29 142 -63z"/>
<path d="M3921 4746 c-22 -12 -15 -17 143 -94 l167 -81 -3 -185 -3 -184 26 14
c15 7 29 21 33 29 9 23 7 338 -2 351 -7 11 -318 164 -331 164 -3 -1 -17 -7
-30 -14z"/>
<path d="M4506 4464 c-17 -12 -4 -21 140 -91 l159 -78 3 -182 c1 -101 5 -183
8 -183 3 0 14 5 25 10 18 10 19 23 19 196 l0 185 -147 70 c-191 92 -185 90
-207 73z"/>
<path d="M3710 3817 c0 -275 3 -380 12 -399 10 -20 61 -52 208 -129 188 -99
548 -290 698 -371 l72 -39 0 393 -1 393 -488 263 c-268 144 -491 262 -495 262
-3 0 -6 -168 -6 -373z m509 63 l441 -235 0 -283 0 -283 -132 70 c-73 39 -277
147 -453 240 l-320 169 -3 282 c-2 241 0 281 12 278 8 -2 213 -109 455 -238z"/>
<path d="M5623 3893 l-33 -17 0 -170 0 -171 165 -94 166 -94 39 18 40 18 0
187 0 187 -160 76 c-88 43 -166 77 -173 76 -6 0 -27 -8 -44 -16z"/>
<path d="M2965 3539 c-154 -10 -171 -14 -213 -45 -50 -39 -72 -81 -72 -140 0
-107 45 -192 128 -245 65 -41 110 -39 162 7 41 37 52 64 25 64 -9 0 -20 11
-27 25 -9 19 -8 29 6 50 20 30 56 33 63 5 6 -21 12 -24 37 -14 12 5 16 21 16
63 1 56 1 56 43 76 64 31 83 108 33 140 -32 20 -71 23 -201 14z"/>
<path d="M2627 3070 c-33 -5 -74 -19 -92 -30 -46 -29 -78 -99 -83 -182 l-4
-67 -34 16 c-18 9 -30 21 -27 26 4 6 1 7 -6 2 -7 -4 -30 1 -52 10 -32 15 -43
16 -68 5 -16 -6 -32 -19 -35 -27 -6 -15 21 -586 30 -652 3 -18 16 -43 29 -55
l24 -22 -45 -315 c-24 -173 -44 -324 -44 -336 0 -19 6 -23 30 -23 23 0 31 5
35 23 4 19 75 455 92 570 3 20 8 37 10 37 2 0 125 -70 274 -156 l269 -157 -5
-31 c-13 -75 -85 -591 -85 -611 0 -18 5 -20 34 -17 28 3 36 9 40 31 6 27 96
570 96 577 0 2 13 1 29 -2 37 -8 97 19 251 113 l115 69 -3 -53 c-3 -45 -8 -56
-30 -70 -15 -9 -35 -26 -44 -37 -23 -29 -97 -29 -128 -1 -21 19 -22 19 -36 0
-8 -10 -14 -24 -14 -31 0 -27 20 -64 43 -79 32 -20 107 -5 170 35 l45 28 7
109 c6 93 10 111 26 121 25 16 22 23 49 -162 12 -82 24 -155 27 -163 8 -21
-28 -15 -54 9 -21 19 -26 20 -34 8 -15 -23 -2 -83 23 -103 14 -12 33 -17 50
-15 15 3 28 1 28 -4 0 -4 18 -8 41 -8 34 0 40 3 37 19 -2 15 20 36 89 86 51
36 97 74 103 85 14 26 13 93 -2 108 -7 7 -28 12 -47 12 -43 0 -136 -41 -108
-47 13 -3 17 -15 17 -49 0 -41 -3 -46 -32 -59 -18 -7 -35 -11 -37 -9 -7 7 -59
338 -55 346 3 4 29 21 59 38 113 65 154 131 155 248 0 68 -1 73 -25 82 -14 5
-33 6 -42 3 -17 -7 -356 -195 -434 -242 l-36 -21 -27 132 c-20 104 -26 162
-26 267 l0 134 64 -61 c38 -37 73 -62 86 -62 53 0 124 69 118 115 -2 16 -64
81 -190 199 -180 169 -259 226 -308 226 -11 0 -45 16 -74 36 -61 40 -125 50
-229 34z"/>
<path d="M5087 2810 c-19 -41 -43 -55 -90 -51 -36 2 -103 36 -115 57 -12 22
-32 9 -32 -20 0 -26 33 -60 73 -75 114 -43 284 40 222 109 -26 29 -38 25 -58
-20z"/>
<path d="M3970 2685 c-10 -13 -9 -15 8 -15 27 0 52 -26 52 -55 0 -28 -38 -61
-81 -70 -41 -9 -26 -25 23 -25 105 0 202 118 136 164 -30 21 -121 21 -138 1z"/>
<path d="M4136 2446 l-39 -23 164 -90 c460 -253 427 -238 462 -221 18 9 111
58 208 110 l177 94 -32 18 c-17 10 -26 12 -19 5 10 -10 -28 -34 -184 -115
l-195 -103 -50 43 c-46 40 -193 126 -216 126 -6 0 -24 12 -39 26 -33 32 -104
66 -185 90 -32 10 -58 21 -58 26 0 4 4 8 8 8 9 0 50 29 42 30 -3 0 -22 -11
-44 -24z"/>
<path d="M4805 2357 c-111 -85 -118 -92 -91 -95 18 -2 30 -11 34 -24 4 -17 21
-4 108 83 79 79 101 106 92 116 -6 7 -13 13 -17 12 -3 0 -60 -42 -126 -92z"/>
<path d="M1783 1490 c5 -107 30 -173 100 -265 251 -330 938 -571 1787 -626
203 -13 619 -7 810 11 690 66 1288 272 1555 535 96 95 153 193 169 290 6 38 5
38 -17 -15 -32 -77 -74 -134 -154 -211 -271 -262 -835 -455 -1533 -526 -242
-24 -746 -24 -990 1 -730 73 -1300 276 -1565 558 -82 87 -131 176 -141 255
-12 87 -25 83 -21 -7z"/>
</g>
</svg>
