<?xml version="1.0" standalone="no"?>
<!DOCTYPE svg PUBLIC "-//W3C//DTD SVG 20010904//EN"
 "http://www.w3.org/TR/2001/REC-SVG-20010904/DTD/svg10.dtd">
<svg version="1.0" xmlns="http://www.w3.org/2000/svg"
 width="800.000000pt" height="619.000000pt" viewBox="0 0 800.000000 619.000000"
 preserveAspectRatio="xMidYMid meet">
<metadata>
Created by potrace 1.15, written by Peter Selinger 2001-2017
</metadata>
<g transform="translate(0.000000,619.000000) scale(0.100000,-0.100000)"
fill="#000000" stroke="none">
<path d="M2564 6143 c27 -189 28 -238 9 -305 -4 -17 -50 -18 -788 -18 -765 0
-785 0 -795 -19 -27 -52 -14 -92 139 -413 177 -372 332 -695 349 -724 22 -41
71 -54 195 -54 l115 0 17 -42 c38 -96 160 -197 306 -254 51 -20 84 -41 108
-67 19 -21 47 -45 63 -53 l28 -14 -17 -36 c-28 -58 -27 -59 207 -165 69 -31
251 -113 404 -183 153 -70 288 -126 300 -124 21 3 40 35 98 163 15 33 65 145
112 249 48 104 86 197 86 206 0 20 -11 25 -320 165 -113 51 -233 106 -267 123
l-63 29 251 8 c138 4 918 4 1733 0 1410 -7 1484 -7 1520 10 41 20 45 27 326
620 70 149 149 312 174 364 47 97 55 140 34 186 l-11 25 -2125 2 -2125 3 -2
130 c-3 160 -18 235 -47 235 -19 0 -20 -4 -14 -47z m4048 -613 l-17 -40 -1585
0 c-872 0 -2067 -3 -2657 -6 l-1071 -7 -21 41 c-12 23 -21 44 -21 47 0 3 1212
5 2694 5 l2695 0 -17 -40z m-3242 -110 c0 -7 -200 -10 -580 -10 -380 0 -580 3
-580 10 0 7 200 10 580 10 380 0 580 -3 580 -10z m2510 0 c0 -7 -238 -10 -695
-10 -457 0 -695 3 -695 10 0 7 238 10 695 10 457 0 695 -3 695 -10z m-1067
-97 c-365 -2 -961 -2 -1325 0 -365 1 -67 2 662 2 729 0 1027 -1 663 -2z m-556
-90 c-218 -2 -576 -2 -795 0 -218 1 -39 2 398 2 437 0 616 -1 397 -2z m-499
-38 c-3 -3 -329 -8 -725 -11 -512 -5 -726 -3 -739 4 -14 8 183 11 725 12 409
0 742 -2 739 -5z m745 -92 c-353 -2 -933 -2 -1290 0 -356 1 -68 2 642 2 710 0
1001 -1 648 -2z m-230 -40 c-309 -2 -817 -2 -1130 0 -312 1 -59 2 562 2 622 0
877 -1 568 -2z m15 -40 c-313 -2 -823 -2 -1135 0 -313 1 -57 2 567 2 624 0
880 -1 568 -2z m599 -40 c-246 -2 -648 -2 -895 0 -246 1 -44 2 448 2 492 0
694 -1 447 -2z m106 -40 c-435 -2 -1151 -2 -1590 0 -439 1 -83 2 792 2 875 0
1234 -1 798 -2z m285 -40 c-384 -2 -1012 -2 -1395 0 -384 1 -70 2 697 2 767 0
1081 -1 698 -2z m-216 -40 c-446 -2 -1178 -2 -1625 0 -446 1 -81 2 813 2 894
0 1259 -1 812 -2z m-2565 -265 c-3 -7 -33 -75 -67 -150 l-62 -136 -40 14 c-22
8 -68 13 -102 12 -52 -2 -72 3 -140 35 -123 58 -247 173 -232 214 3 6 0 14 -7
17 -7 2 138 5 322 5 263 1 332 -2 328 -11z m773 -208 c118 -49 195 -89 198
-103 5 -25 -71 -188 -81 -174 -6 8 -7 6 -3 -6 7 -21 -53 -159 -65 -151 -5 3
-6 -1 -3 -9 5 -15 -97 -240 -115 -251 -14 -9 -167 60 -164 73 2 6 -3 8 -11 5
-7 -3 -46 10 -87 29 -41 19 -121 56 -179 82 -58 26 -108 52 -111 57 -3 5 -10
9 -15 9 -15 -1 -46 11 -41 16 3 2 14 0 25 -6 23 -12 42 3 42 34 0 16 2 17 9 6
8 -13 12 -13 27 0 16 13 17 12 12 -8 -4 -13 -2 -23 2 -23 5 0 8 -9 7 -20 -1
-21 -12 -26 -22 -10 -3 6 -14 10 -23 10 -15 -1 -15 -2 2 -15 25 -19 37 -19 62
0 19 15 19 15 -1 9 -14 -5 -17 -4 -10 4 7 7 21 9 40 4 28 -8 29 -9 10 -20 -11
-6 -15 -12 -8 -12 13 0 26 17 30 39 1 8 9 18 17 23 27 15 66 55 66 67 0 6 16
11 35 11 25 0 43 7 59 25 13 14 33 25 45 25 11 0 21 6 21 13 0 7 14 21 30 30
17 10 30 27 30 38 0 29 18 23 22 -8 3 -25 4 -26 20 -10 9 9 25 17 36 17 16 0
21 8 23 43 4 41 3 43 -20 39 -17 -4 -22 -1 -19 9 3 8 12 13 21 13 9 -1 15 2
12 6 -6 10 35 46 63 55 16 4 22 2 22 -8 0 -24 29 -28 41 -6 10 19 8 20 -11 14
-13 -4 -20 -3 -17 2 3 5 -7 14 -24 20 -27 11 -43 1 -16 -11 6 -3 -1 -2 -17 1
-22 5 -27 3 -21 -7 6 -9 4 -11 -5 -5 -10 6 -8 13 11 28 22 18 22 20 3 15 -13
-3 -21 0 -21 7 0 10 6 11 21 4 12 -5 32 -14 46 -19z"/>
<path d="M1628 4437 c-67 -35 -172 -94 -233 -132 -211 -131 -314 -186 -482
-259 -92 -40 -216 -97 -273 -125 -224 -112 -241 -130 -205 -217 8 -19 10 -32
5 -29 -6 3 -10 2 -10 -4 0 -5 6 -14 14 -18 22 -13 69 -73 62 -80 -3 -3 -13 0
-22 8 -16 13 -16 12 -3 -8 7 -13 20 -21 29 -18 9 2 28 -13 49 -40 18 -25 37
-45 42 -45 5 0 20 -19 35 -41 29 -46 25 -57 -28 -69 -27 -6 -28 -8 -8 -9 33 0
104 41 109 64 5 27 21 39 71 54 25 7 78 28 119 47 41 19 76 32 79 29 12 -12
-32 -55 -79 -79 -29 -14 -46 -26 -37 -26 29 0 112 64 123 95 5 16 25 43 44 59
54 49 101 178 101 281 0 30 5 35 80 73 l81 41 48 -29 c64 -40 112 -59 176 -71
45 -8 63 -6 114 11 68 23 175 85 236 137 34 29 45 33 73 28 39 -7 51 13 31 53
-7 15 -14 34 -14 43 -6 53 -21 105 -57 192 -43 103 -80 147 -123 147 -13 0
-79 -28 -147 -63z m-24 -94 c-50 -38 -133 -100 -185 -139 -144 -108 -167 -116
-110 -37 44 60 139 129 285 207 105 56 109 43 10 -31z m243 -10 c27 -35 63
-113 63 -138 0 -30 3 -30 -60 -5 -67 27 -131 25 -218 -4 -40 -14 -72 -23 -72
-21 0 2 46 36 103 76 56 40 113 81 127 91 32 22 39 22 57 1z m-90 -213 c35 -6
75 -15 89 -20 26 -10 26 -11 8 -32 -25 -28 -137 -100 -199 -128 -27 -12 -75
-24 -106 -27 -60 -6 -85 3 -168 60 l-45 30 24 16 c37 25 280 110 315 111 11 0
48 -5 82 -10z m-727 -139 c0 -5 -216 -84 -239 -87 -3 0 -19 -6 -36 -13 -44
-19 -167 -62 -190 -66 -76 -15 224 141 315 163 74 19 150 20 150 3z m58 -190
c-6 -105 -23 -140 -93 -190 -44 -32 -165 -91 -215 -106 l-25 -7 28 29 c15 16
27 33 27 37 0 4 -12 -6 -26 -23 -14 -18 -35 -36 -47 -42 -19 -11 -20 -9 -13
22 9 51 64 153 99 187 29 27 254 182 265 182 3 0 2 -40 0 -89z m-253 -9 c-6
-5 -40 -32 -76 -60 -71 -55 -103 -106 -115 -181 -4 -23 -10 -41 -14 -41 -25 0
-110 127 -110 165 0 6 28 20 62 33 48 17 64 19 70 10 6 -10 13 -7 27 9 11 13
48 34 83 47 69 26 87 31 73 18z"/>
<path d="M5300 4320 c-175 -34 -246 -252 -122 -376 49 -49 98 -66 172 -62 80
4 134 35 177 99 31 47 42 136 24 191 -33 99 -150 168 -251 148z"/>
<path d="M6707 4119 c-90 -21 -191 -92 -247 -174 -79 -115 -92 -280 -32 -408
78 -168 264 -270 439 -240 183 32 322 169 354 352 27 150 -52 328 -181 411
-96 61 -225 84 -333 59z"/>
<path d="M2308 3482 c-15 -3 -18 -14 -18 -62 l0 -58 53 -4 c96 -6 97 -6 97 68
l0 64 -57 -2 c-32 -2 -66 -4 -75 -6z"/>
<path d="M2498 3484 c-5 -4 -8 -33 -8 -65 0 -66 1 -67 103 -61 l57 4 0 59 0
59 -37 0 c-21 0 -54 3 -73 6 -19 3 -38 2 -42 -2z"/>
<path d="M4763 3482 c-21 -3 -23 -9 -23 -62 l0 -58 43 -3 c23 -2 59 -3 80 -1
l38 3 -3 62 -3 62 -55 0 c-30 0 -65 -1 -77 -3z"/>
<path d="M4944 3466 c-3 -13 -4 -40 -2 -62 l3 -39 78 -3 77 -3 0 61 0 60 -32
1 c-18 1 -52 3 -75 5 -38 3 -43 1 -49 -20z"/>
<path d="M1830 3420 l0 -60 100 0 100 0 0 60 0 60 -100 0 -100 0 0 -60z"/>
<path d="M2080 3420 l0 -60 80 0 80 0 0 60 0 60 -80 0 -80 0 0 -60z"/>
<path d="M2700 3420 l0 -60 75 0 75 0 0 60 0 60 -75 0 -75 0 0 -60z"/>
<path d="M2902 3423 l3 -58 75 0 75 0 0 55 0 55 -78 3 -78 3 3 -58z"/>
<path d="M3110 3420 l0 -60 75 0 75 0 0 60 0 60 -75 0 -75 0 0 -60z"/>
<path d="M3310 3420 l0 -61 78 3 77 3 0 55 0 55 -77 3 -78 3 0 -61z"/>
<path d="M3517 3473 c-9 -8 -9 -76 -1 -97 5 -13 22 -16 80 -16 l74 0 0 60 0
60 -73 0 c-41 0 -77 -3 -80 -7z"/>
<path d="M3720 3420 l0 -60 75 0 75 0 0 60 0 60 -75 0 -75 0 0 -60z"/>
<path d="M3927 3473 c-4 -3 -7 -30 -7 -60 l0 -53 80 0 80 0 0 60 0 60 -73 0
c-41 0 -77 -3 -80 -7z"/>
<path d="M4130 3420 l0 -60 75 0 75 0 0 60 0 60 -75 0 -75 0 0 -60z"/>
<path d="M4330 3420 l0 -60 80 0 80 0 0 60 0 60 -80 0 -80 0 0 -60z"/>
<path d="M4540 3420 l0 -60 75 0 75 0 0 60 0 60 -75 0 -75 0 0 -60z"/>
<path d="M5150 3420 l0 -61 78 3 77 3 0 55 0 55 -77 3 -78 3 0 -61z"/>
<path d="M5358 3424 c-1 -31 -1 -58 1 -60 2 -2 37 -4 78 -4 l73 0 0 60 0 60
-74 0 -74 0 -4 -56z"/>
<path d="M5560 3420 l0 -61 78 3 77 3 0 55 0 55 -77 3 -78 3 0 -61z"/>
<path d="M5764 3466 c-3 -7 -4 -33 -2 -57 l3 -44 93 -3 92 -3 0 61 0 60 -90 0
c-68 0 -92 -3 -96 -14z"/>
<path d="M1832 3228 l3 -83 92 -3 91 -3 4 58 c2 32 2 70 0 86 l-4 27 -95 0
-94 0 3 -82z"/>
<path d="M2069 3293 c-1 -33 -2 -78 0 -115 l1 -38 90 0 91 0 -3 83 -3 82 -87
3 c-79 2 -88 1 -89 -15z"/>
<path d="M2294 3297 c-3 -8 -4 -45 -2 -83 l3 -69 90 0 90 0 0 80 0 80 -88 3
c-67 2 -89 0 -93 -11z"/>
<path d="M2520 3225 l0 -85 89 0 89 0 4 48 c1 26 2 64 0 85 l-3 37 -90 0 -89
0 0 -85z"/>
<path d="M2747 3288 c-8 -39 -8 -122 1 -136 6 -9 32 -12 93 -10 l84 3 3 83 3
82 -90 0 c-84 0 -89 -1 -94 -22z"/>
<path d="M2975 3298 c-3 -7 -4 -44 -2 -83 l2 -70 87 -3 87 -3 6 43 c4 24 5 61
3 83 l-3 40 -88 3 c-64 2 -89 -1 -92 -10z"/>
<path d="M3200 3225 l0 -85 90 0 90 0 0 85 0 85 -90 0 -90 0 0 -85z"/>
<path d="M3432 3228 l3 -83 85 0 85 0 3 83 3 82 -91 0 -91 0 3 -82z"/>
<path d="M3654 3297 c-3 -8 -4 -45 -2 -83 l3 -69 90 0 90 0 3 60 c5 104 5 105
-94 105 -62 0 -86 -4 -90 -13z"/>
<path d="M3884 3297 c-3 -8 -4 -45 -2 -83 l3 -69 88 -3 87 -3 0 86 0 85 -85 0
c-63 0 -87 -4 -91 -13z"/>
<path d="M4110 3225 l0 -85 90 0 90 0 0 85 0 85 -90 0 -90 0 0 -85z"/>
<path d="M4335 3301 c-3 -6 -3 -45 1 -86 l7 -76 86 3 86 3 0 80 0 80 -87 3
c-51 2 -89 -1 -93 -7z"/>
<path d="M4562 3228 l3 -83 85 0 85 0 3 83 3 82 -91 0 -91 0 3 -82z"/>
<path d="M4790 3225 l0 -85 173 2 172 3 3 83 3 82 -176 0 -175 0 0 -85z"/>
<path d="M5185 3301 c-6 -11 -5 -116 2 -143 4 -15 16 -18 79 -18 l74 0 0 85 0
85 -74 0 c-41 0 -77 -4 -81 -9z"/>
<path d="M5385 3268 c-4 -24 -5 -61 -3 -83 l3 -40 78 -3 77 -3 0 86 0 85 -74
0 -75 0 -6 -42z"/>
<path d="M5587 3233 c-3 -42 -4 -81 -1 -85 3 -4 37 -8 75 -8 82 0 87 7 81 108
l-4 62 -72 0 -73 0 -6 -77z"/>
<path d="M5788 3292 c-3 -10 -4 -32 -3 -50 1 -18 2 -48 3 -67 l2 -36 83 3 82
3 3 83 3 82 -84 0 c-73 0 -85 -3 -89 -18z"/>
<path d="M1834 3077 c-3 -8 -4 -45 -2 -83 l3 -69 150 0 150 0 0 80 0 80 -148
3 c-118 2 -148 0 -153 -11z"/>
<path d="M2180 3005 l0 -86 88 3 87 3 0 80 0 80 -87 3 -88 3 0 -86z"/>
<path d="M2404 3077 c-3 -8 -4 -45 -2 -83 l3 -69 90 0 90 0 0 80 0 80 -88 3
c-67 2 -89 0 -93 -11z"/>
<path d="M2632 3008 l3 -83 88 -3 88 -3 -3 83 -3 83 -88 3 -88 3 3 -83z"/>
<path d="M2862 3008 l3 -83 85 0 85 0 0 80 0 80 -88 3 -88 3 3 -83z"/>
<path d="M3092 3081 c-9 -5 -12 -30 -10 -87 l3 -79 85 0 85 0 0 85 0 85 -75 2
c-41 2 -81 -1 -88 -6z"/>
<path d="M3311 3077 c-12 -12 -15 -135 -3 -153 4 -8 38 -11 92 -10 l85 1 0 85
0 85 -81 2 c-49 0 -86 -3 -93 -10z"/>
<path d="M3534 3076 c-3 -7 -4 -46 -2 -87 l3 -74 85 0 85 0 0 85 0 85 -83 2
c-61 2 -84 -1 -88 -11z"/>
<path d="M3764 3077 c-3 -8 -4 -45 -2 -83 l3 -69 90 0 90 0 0 80 0 80 -88 3
c-67 2 -89 0 -93 -11z"/>
<path d="M3990 3005 l0 -85 84 0 c47 0 87 4 90 9 4 5 9 37 12 70 9 85 2 91
-102 91 l-84 0 0 -85z"/>
<path d="M4220 3005 l0 -85 90 0 90 0 0 85 0 85 -90 0 -90 0 0 -85z"/>
<path d="M4444 3077 c-3 -8 -4 -45 -2 -83 l3 -69 90 0 90 0 0 80 0 80 -88 3
c-67 2 -89 0 -93 -11z"/>
<path d="M4677 3083 c-4 -3 -7 -41 -7 -84 l0 -77 90 0 90 0 0 84 0 84 -83 0
c-46 0 -87 -3 -90 -7z"/>
<path d="M4914 3076 c-3 -7 -4 -48 -2 -92 l3 -79 38 -3 c27 -2 37 -8 37 -21 0
-17 87 -91 108 -91 5 0 12 7 16 15 3 8 12 15 19 15 19 0 24 234 6 256 -15 19
-218 19 -225 0z"/>
<path d="M5210 3005 l0 -86 78 3 77 3 0 80 0 80 -77 3 -78 3 0 -86z"/>
<path d="M5410 3005 l0 -86 78 3 77 3 0 80 0 80 -77 3 -78 3 0 -86z"/>
<path d="M5610 3005 l0 -86 78 3 77 3 0 80 0 80 -77 3 -78 3 0 -86z"/>
<path d="M5812 2883 l3 -198 75 0 75 0 0 195 0 195 -78 3 -77 3 2 -198z"/>
<path d="M5239 2863 c-21 -3 -28 -11 -31 -35 -4 -25 1 -36 30 -62 19 -17 45
-42 57 -54 14 -15 31 -23 46 -20 23 3 24 7 26 77 2 43 -2 80 -8 88 -11 12 -61
15 -120 6z"/>
<path d="M5414 2855 c-3 -6 -4 -45 -2 -86 l3 -74 69 -3 c49 -2 72 1 77 10 14
21 11 148 -3 153 -35 11 -140 12 -144 0z"/>
<path d="M5614 2857 c-3 -8 -4 -47 -2 -88 l3 -74 75 0 75 0 0 85 0 85 -73 3
c-54 2 -74 -1 -78 -11z"/>
<path d="M1843 2853 c-9 -3 -13 -30 -13 -83 0 -66 3 -79 18 -84 33 -10 321 -1
332 10 7 7 10 41 8 85 l-3 74 -165 2 c-91 1 -171 -1 -177 -4z"/>
<path d="M2237 2854 c-14 -14 -8 -154 6 -160 8 -3 46 -6 86 -7 69 -3 74 -2 82
21 13 35 11 128 -3 140 -15 11 -160 16 -171 6z"/>
<path d="M2467 2853 c-4 -3 -7 -41 -7 -84 0 -76 1 -79 25 -85 14 -3 55 -3 91
1 l65 7 -3 81 -3 82 -81 2 c-44 2 -84 0 -87 -4z"/>
<path d="M2697 2854 c-4 -4 -7 -43 -7 -86 l0 -78 48 -2 c26 -1 62 -2 80 -3 18
0 38 5 43 11 5 7 9 45 7 86 l-3 73 -80 3 c-45 1 -84 0 -88 -4z"/>
<path d="M2922 2848 c-15 -15 -16 -122 -1 -149 9 -17 20 -19 80 -18 46 1 75 7
85 16 18 18 19 134 2 151 -16 16 -150 16 -166 0z"/>
<path d="M3595 2852 c-3 -3 -5 -38 -5 -78 0 -88 7 -95 105 -92 60 1 68 4 76
25 13 36 11 129 -4 141 -12 11 -162 14 -172 4z"/>
<path d="M3826 2852 c-9 -8 -7 -162 2 -163 41 -5 153 -4 162 1 7 4 10 36 8 86
l-3 79 -82 2 c-45 0 -84 -1 -87 -5z"/>
<path d="M4044 2833 c-9 -34 1 -134 14 -142 6 -3 39 -6 74 -5 109 2 99 -7 96
87 l-3 82 -88 1 c-85 2 -87 1 -93 -23z"/>
<path d="M4276 2853 c-3 -4 -6 -41 -6 -84 0 -65 3 -79 18 -83 25 -8 113 0 142
13 24 11 25 15 20 84 l-5 72 -81 2 c-45 1 -85 -1 -88 -4z"/>
<path d="M4507 2854 c-4 -4 -7 -40 -7 -80 0 -63 3 -73 19 -79 29 -9 138 -13
151 -5 7 4 10 36 8 86 l-3 79 -80 3 c-45 1 -84 0 -88 -4z"/>
<path d="M3134 2836 c-3 -8 -4 -45 -2 -82 3 -67 4 -69 28 -66 32 3 66 3 115 0
l40 -3 3 50 c2 27 1 65 -3 82 l-6 33 -85 0 c-63 0 -86 -4 -90 -14z"/>
<path d="M3362 2768 l3 -83 86 -3 87 -3 4 47 c2 25 2 64 0 85 l-4 39 -89 0
-90 0 3 -82z"/>
<path d="M6528 2793 c-26 -4 -59 -32 -92 -78 -8 -11 -18 -17 -22 -13 -4 5 6
19 22 33 33 28 25 33 -14 9 -44 -26 -91 -93 -108 -152 -21 -73 -14 -138 26
-238 24 -60 35 -110 46 -207 11 -95 21 -143 40 -182 29 -63 118 -148 184 -178
55 -24 155 -28 223 -8 62 18 148 95 185 165 25 46 27 61 27 161 l0 110 -62
115 c-45 85 -66 136 -78 195 -20 95 -43 142 -94 195 -53 55 -177 110 -140 63
13 -17 13 -17 -7 0 -20 17 -68 20 -136 10z"/>
<path d="M5404 2627 c-3 -8 -4 -47 -2 -88 l3 -74 80 0 80 0 0 85 0 85 -78 3
c-59 2 -79 0 -83 -11z"/>
<path d="M5612 2553 l3 -88 75 0 75 0 0 85 0 85 -78 3 -78 3 3 -88z"/>
<path d="M5817 2634 c-4 -4 -7 -94 -7 -200 0 -144 3 -193 13 -196 6 -3 37 -3
67 -2 30 2 61 3 68 4 10 0 12 43 10 198 l-3 197 -70 3 c-39 1 -74 0 -78 -4z"/>
<path d="M1847 2623 c-4 -3 -7 -41 -7 -84 0 -61 3 -78 16 -83 20 -8 188 -8
208 0 23 9 23 159 0 168 -21 8 -209 8 -217 -1z"/>
<path d="M2137 2624 c-4 -4 -7 -42 -7 -85 0 -61 3 -78 16 -83 23 -9 137 -7
152 3 9 5 12 30 10 87 l-3 79 -80 3 c-45 1 -84 0 -88 -4z"/>
<path d="M2364 2617 c-3 -8 -4 -47 -2 -88 l3 -74 73 -3 c46 -2 79 2 88 9 21
17 20 155 -2 163 -32 12 -154 7 -160 -7z"/>
<path d="M3494 2617 c-3 -8 -4 -47 -2 -88 l3 -74 85 0 85 0 0 85 0 85 -83 3
c-63 2 -84 0 -88 -11z"/>
<path d="M3724 2617 c-3 -8 -4 -47 -2 -88 l3 -74 65 -3 c109 -5 110 -5 110 87
0 92 1 91 -101 91 -49 0 -71 -4 -75 -13z"/>
<path d="M3953 2623 c-9 -3 -13 -30 -13 -84 0 -92 1 -92 110 -87 l65 3 5 73
c3 41 1 80 -3 88 -6 10 -27 14 -80 13 -40 -1 -78 -4 -84 -6z"/>
<path d="M4177 2624 c-4 -4 -7 -42 -7 -85 0 -61 3 -78 16 -83 23 -9 137 -7
152 3 9 5 12 30 10 87 l-3 79 -80 3 c-45 1 -84 0 -88 -4z"/>
<path d="M4627 2624 c-3 -3 19 -35 49 -70 30 -35 60 -73 66 -84 9 -13 24 -20
45 -20 29 0 33 3 33 28 0 33 -26 120 -41 138 -12 14 -139 21 -152 8z"/>
<path d="M3265 2571 c-9 -28 -15 -65 -13 -83 3 -32 5 -33 51 -36 29 -2 67 4
93 14 l45 17 -3 66 -3 66 -77 3 -76 3 -17 -50z"/>
<path d="M322 2493 c-12 -31 -20 -58 -19 -59 1 -1 28 -14 60 -28 l58 -25 25
55 c13 30 24 57 24 60 0 6 -101 54 -116 54 -6 0 -21 -26 -32 -57z"/>
<path d="M3112 2393 c-25 -25 -72 -118 -72 -143 0 -12 12 -14 61 -12 55 4 65
7 88 35 14 18 46 53 70 80 24 26 42 49 40 51 -2 2 -40 6 -84 8 -73 3 -82 2
-103 -19z"/>
<path d="M3495 2410 c-1 -3 -5 -17 -8 -31 -4 -14 -24 -52 -46 -84 -22 -33 -39
-59 -38 -60 1 0 109 1 240 3 l237 3 0 84 0 84 -191 3 c-105 2 -192 1 -194 -2z"/>
<path d="M5412 2413 c-13 -5 -12 -19 9 -130 l10 -53 54 0 c85 0 85 0 85 96 l0
84 -59 0 c-33 0 -65 2 -73 4 -7 3 -19 2 -26 -1z"/>
<path d="M1844 2397 c-3 -8 -4 -45 -2 -83 l3 -69 104 -3 c77 -2 107 1 113 10
8 13 9 122 0 146 -6 18 -211 17 -218 -1z"/>
<path d="M2114 2397 c-3 -8 -4 -45 -2 -83 l3 -69 85 0 85 0 0 80 0 80 -83 3
c-63 2 -84 0 -88 -11z"/>
<path d="M2338 2335 c-2 -41 -1 -80 0 -85 2 -6 32 -10 66 -10 l63 0 22 63 c37
105 39 102 -61 105 l-86 3 -4 -76z"/>
<path d="M3930 2325 l0 -86 88 3 87 3 0 80 0 80 -87 3 -88 3 0 -86z"/>
<path d="M4156 2395 c-9 -24 -7 -128 3 -143 5 -9 31 -12 92 -10 l84 3 0 80 0
80 -86 3 c-72 2 -88 0 -93 -13z"/>
<path d="M5610 2326 c0 -94 2 -96 73 -96 86 0 87 2 87 96 l0 84 -80 0 -80 0 0
-84z"/>
<path d="M2285 1559 c-20 -10 -82 -89 -78 -100 1 -3 -11 -19 -27 -34 -32 -31
-42 -58 -12 -33 18 15 42 18 42 6 0 -5 0 -12 0 -18 0 -5 -4 -10 -10 -10 -5 0
-10 7 -10 17 0 15 -1 15 -18 0 -10 -10 -21 -14 -25 -11 -4 4 -31 -6 -62 -21
-40 -21 -52 -31 -43 -38 9 -6 7 -7 -5 -3 -32 10 -293 -155 -280 -177 3 -6 1
-7 -6 -3 -11 7 -71 -38 -167 -127 -23 -21 -50 -44 -59 -51 -11 -8 -15 -18 -10
-26 5 -8 4 -11 -3 -6 -17 10 -187 -180 -189 -212 l-2 -27 19 23 19 23 -3 -24
c-3 -32 -14 -47 -30 -41 -8 3 -13 16 -11 32 l3 26 -24 -29 c-14 -17 -30 -37
-37 -45 -58 -69 -67 -83 -56 -96 6 -7 8 -22 5 -32 -8 -25 -35 -25 -28 1 4 14
7 16 13 5 6 -9 9 -9 9 -1 0 6 -4 14 -10 18 -12 8 -44 -41 -35 -55 4 -6 1 -17
-5 -25 -6 -8 -9 -18 -6 -23 3 -5 -5 -8 -19 -7 -20 3 -36 -14 -104 -108 -44
-62 -96 -130 -116 -152 -41 -47 -47 -69 -8 -34 15 13 22 16 14 7 -7 -9 -10
-21 -7 -26 3 -5 -5 -8 -17 -7 -12 1 -28 -2 -35 -8 -15 -12 -52 -81 -52 -97 0
-7 226 -10 714 -10 l714 0 45 67 c25 38 86 149 136 248 103 204 122 239 232
422 67 112 79 138 79 177 0 32 7 53 23 73 43 52 107 149 107 161 0 7 -5 12
-11 12 -5 0 -8 4 -5 9 4 5 2 19 -2 32 -8 22 -11 20 -43 -27 -57 -83 -104 -143
-111 -144 -21 -1 12 60 59 108 7 7 13 17 13 20 0 4 13 22 29 39 l28 31 -50 42
c-45 36 -53 39 -63 25 -41 -55 -52 -71 -79 -106 -28 -37 -45 -49 -45 -31 0 12
88 135 105 148 12 9 -7 27 -99 97 l-114 86 -32 -49 c-18 -28 -36 -50 -41 -50
-5 0 -9 -6 -9 -13 0 -8 -8 -21 -18 -30 -20 -18 -32 -22 -32 -9 0 10 98 145
111 153 6 3 4 11 -5 18 -12 10 -22 2 -57 -51 -52 -76 -86 -114 -95 -105 -7 7
57 100 108 157 16 18 15 20 -16 39 -36 23 -60 25 -91 10z"/>
<path d="M5600 1564 c0 -3 8 -18 18 -32 38 -56 72 -131 63 -136 -12 -8 -16 -1
-62 91 -34 67 -38 71 -55 58 -11 -8 -14 -15 -8 -15 13 0 89 -149 80 -157 -6
-6 -69 95 -73 116 -1 8 -8 20 -16 28 -13 13 -18 13 -43 -3 -16 -10 -30 -18
-31 -19 -1 -1 16 -36 38 -78 26 -51 36 -77 27 -77 -7 0 -29 31 -48 70 -19 38
-40 70 -46 70 -21 0 -23 -13 -5 -39 49 -70 78 -161 51 -161 -5 0 -7 6 -4 13 3
8 -11 42 -31 76 -19 35 -35 67 -35 71 0 16 -21 22 -35 10 -8 -7 -42 -25 -75
-41 -48 -23 -58 -31 -53 -46 4 -10 9 -20 13 -23 16 -14 69 -129 61 -134 -7 -5
-51 55 -51 70 0 2 -11 22 -24 43 -14 21 -22 42 -18 45 3 4 -1 4 -11 0 -9 -3
-17 -8 -17 -11 0 -3 20 -43 45 -91 43 -81 51 -113 21 -81 -8 8 -31 47 -51 87
-20 40 -42 71 -48 69 -17 -6 -15 -11 38 -105 33 -58 44 -87 37 -94 -7 -7 -25
19 -57 83 -55 109 -52 106 -66 92 -7 -7 6 -40 40 -105 28 -52 51 -100 51 -107
0 -25 -17 -9 -39 37 -12 26 -34 67 -49 92 -15 25 -25 52 -23 60 2 11 -2 10
-19 -5 -15 -13 -19 -26 -15 -43 3 -14 2 -21 -4 -18 -5 3 -7 -3 -4 -14 8 -28
22 -35 16 -8 -4 22 -4 23 11 3 9 -10 22 -34 28 -52 7 -18 16 -33 20 -33 4 0 8
-7 8 -16 0 -24 -26 0 -34 31 -4 14 -11 25 -17 25 -6 0 2 -23 17 -51 22 -39 30
-47 34 -33 6 15 7 15 12 2 4 -9 2 -20 -4 -26 -7 -7 -5 -17 6 -33 9 -13 16 -44
16 -69 1 -69 17 -127 60 -215 53 -106 130 -207 210 -273 36 -30 76 -74 89 -98
l24 -44 -22 -92 c-26 -115 -26 -154 -1 -196 l20 -32 565 0 565 0 0 23 c0 35
-38 165 -71 238 -78 178 -188 343 -442 659 -27 33 -135 187 -154 220 -12 19
-40 72 -63 117 -47 94 -84 130 -139 139 -49 8 -51 9 -85 74 -46 87 -70 110
-73 68 -2 -18 0 -19 7 -8 7 11 14 3 30 -33 25 -56 21 -75 -4 -22 -18 38 -31
47 -21 15 9 -29 -2 -24 -19 8 -8 16 -12 39 -9 50 3 13 1 22 -6 22 -5 0 -8 -8
-5 -17 5 -17 5 -17 -6 0 -10 16 -30 24 -30 11z"/>
</g>
</svg>
